<svg width="80" height="60" viewBox="0 0 80 60" fill="none" xmlns="http://www.w3.org/2000/svg">
<g clip-path="url(#clip0_209_8)">
<path d="M0 40H80V60H0V40Z" fill="#1EB53A"/>
<path d="M0 0H80V20H0V0Z" fill="#0099B5"/>
<path d="M0 19.2002H80V40.8002H0V19.2002Z" fill="#CE1126"/>
<path d="M0 20.3999H80V39.5999H0V20.3999Z" fill="white"/>
<path d="M16.8 16.7999C20.7764 16.7999 24 13.5764 24 9.5999C24 5.62345 20.7764 2.3999 16.8 2.3999C12.8235 2.3999 9.59998 5.62345 9.59998 9.5999C9.59998 13.5764 12.8235 16.7999 16.8 16.7999Z" fill="white"/>
<path d="M19.2 16.7999C23.1765 16.7999 26.4 13.5764 26.4 9.5999C26.4 5.62345 23.1765 2.3999 19.2 2.3999C15.2236 2.3999 12 5.62345 12 9.5999C12 13.5764 15.2236 16.7999 19.2 16.7999Z" fill="#0099B5"/>
<path d="M32.6375 13.9224L32.1815 15.2904L32.8775 15.5304" fill="white"/>
<path d="M32.6375 13.9224L33.0935 15.2904L32.3975 15.5304" fill="white"/>
<path d="M34.0071 14.9176L32.5651 14.9066L32.5519 15.6427" fill="white"/>
<path d="M34.007 14.9174L32.8469 15.7738L32.4036 15.186" fill="white"/>
<path d="M31.268 14.9174L32.4281 15.7738L32.8714 15.186" fill="white"/>
<path d="M31.268 14.9176L32.7099 14.9066L32.7231 15.6427" fill="white"/>
<path d="M33.4839 16.5273L33.0488 15.1525L32.3446 15.3675" fill="white"/>
<path d="M33.4839 16.5274L32.3109 15.6887L32.7329 15.0854" fill="white"/>
<path d="M31.7911 16.5274L32.9641 15.6887L32.5421 15.0854" fill="white"/>
<path d="M31.7912 16.5273L32.2263 15.1525L32.9305 15.3675" fill="white"/>
<path d="M32.6375 8.16211L32.1815 9.53011L32.8775 9.77011" fill="white"/>
<path d="M32.6375 8.16211L33.0935 9.53011L32.3975 9.77011" fill="white"/>
<path d="M34.0071 9.15731L32.5651 9.14637L32.5519 9.88247" fill="white"/>
<path d="M34.007 9.15714L32.8469 10.0136L32.4036 9.42578" fill="white"/>
<path d="M31.268 9.15714L32.4281 10.0136L32.8714 9.42578" fill="white"/>
<path d="M31.268 9.15731L32.7099 9.14637L32.7231 9.88247" fill="white"/>
<path d="M33.4839 10.7671L33.0488 9.39229L32.3446 9.60722" fill="white"/>
<path d="M33.484 10.7671L32.311 9.92842L32.733 9.32516" fill="white"/>
<path d="M31.7911 10.7671L32.9641 9.92842L32.5421 9.32516" fill="white"/>
<path d="M31.7912 10.7671L32.2263 9.39229L32.9305 9.60722" fill="white"/>
<path d="M32.6375 2.40234L32.1815 3.77034L32.8775 4.01034" fill="white"/>
<path d="M32.6375 2.40234L33.0935 3.77034L32.3975 4.01034" fill="white"/>
<path d="M34.0071 3.39755L32.5651 3.3866L32.5519 4.1227" fill="white"/>
<path d="M34.007 3.39737L32.8469 4.25379L32.4036 3.66602" fill="white"/>
<path d="M31.268 3.39737L32.4281 4.25379L32.8714 3.66602" fill="white"/>
<path d="M31.268 3.39755L32.7099 3.3866L32.7231 4.1227" fill="white"/>
<path d="M33.4839 5.00729L33.0488 3.63252L32.3446 3.84746" fill="white"/>
<path d="M33.484 5.00736L32.311 4.16866L32.733 3.56539" fill="white"/>
<path d="M31.7911 5.00736L32.9641 4.16866L32.5421 3.56539" fill="white"/>
<path d="M31.7912 5.00729L32.2263 3.63252L32.9305 3.84746" fill="white"/>
<path d="M38.3975 13.9224L37.9415 15.2904L38.6375 15.5304" fill="white"/>
<path d="M38.3975 13.9224L38.8535 15.2904L38.1575 15.5304" fill="white"/>
<path d="M39.7671 14.9176L38.3251 14.9066L38.3119 15.6427" fill="white"/>
<path d="M39.767 14.9174L38.6069 15.7738L38.1636 15.186" fill="white"/>
<path d="M37.028 14.9174L38.1881 15.7738L38.6315 15.186" fill="white"/>
<path d="M37.028 14.9176L38.4699 14.9066L38.4831 15.6427" fill="white"/>
<path d="M39.2439 16.5273L38.8088 15.1525L38.1046 15.3675" fill="white"/>
<path d="M39.2439 16.5274L38.0709 15.6887L38.4929 15.0854" fill="white"/>
<path d="M37.5511 16.5274L38.7241 15.6887L38.3021 15.0854" fill="white"/>
<path d="M37.5512 16.5273L37.9863 15.1525L38.6905 15.3675" fill="white"/>
<path d="M38.3975 8.16211L37.9415 9.53011L38.6375 9.77011" fill="white"/>
<path d="M38.3975 8.16211L38.8535 9.53011L38.1575 9.77011" fill="white"/>
<path d="M39.7671 9.15731L38.3251 9.14637L38.3119 9.88247" fill="white"/>
<path d="M39.767 9.15714L38.6069 10.0136L38.1636 9.42578" fill="white"/>
<path d="M37.028 9.15714L38.1881 10.0136L38.6315 9.42578" fill="white"/>
<path d="M37.028 9.15731L38.4699 9.14637L38.4831 9.88247" fill="white"/>
<path d="M39.2439 10.7671L38.8088 9.39229L38.1046 9.60722" fill="white"/>
<path d="M39.244 10.7671L38.071 9.92842L38.493 9.32516" fill="white"/>
<path d="M37.5511 10.7671L38.7241 9.92842L38.3021 9.32516" fill="white"/>
<path d="M37.5512 10.7671L37.9863 9.39229L38.6905 9.60722" fill="white"/>
<path d="M38.3975 2.40234L37.9415 3.77034L38.6375 4.01034" fill="white"/>
<path d="M38.3975 2.40234L38.8535 3.77034L38.1575 4.01034" fill="white"/>
<path d="M39.7671 3.39755L38.3251 3.3866L38.3119 4.1227" fill="white"/>
<path d="M39.767 3.39737L38.6069 4.25379L38.1636 3.66602" fill="white"/>
<path d="M37.028 3.39737L38.1881 4.25379L38.6315 3.66602" fill="white"/>
<path d="M37.028 3.39755L38.4699 3.3866L38.4831 4.1227" fill="white"/>
<path d="M39.2439 5.00729L38.8088 3.63252L38.1046 3.84746" fill="white"/>
<path d="M39.2439 5.00736L38.0709 4.16866L38.4929 3.56539" fill="white"/>
<path d="M37.5511 5.00736L38.7241 4.16866L38.3021 3.56539" fill="white"/>
<path d="M37.5511 5.00729L37.9863 3.63252L38.6904 3.84746" fill="white"/>
<path d="M44.1575 13.9224L43.7015 15.2904L44.3975 15.5304" fill="white"/>
<path d="M44.1575 13.9224L44.6135 15.2904L43.9175 15.5304" fill="white"/>
<path d="M45.527 14.9176L44.0851 14.9066L44.0719 15.6427" fill="white"/>
<path d="M45.527 14.9174L44.3669 15.7738L43.9235 15.186" fill="white"/>
<path d="M42.7879 14.9174L43.9481 15.7738L44.3914 15.186" fill="white"/>
<path d="M42.7879 14.9176L44.2299 14.9066L44.2431 15.6427" fill="white"/>
<path d="M45.0039 16.5273L44.5687 15.1525L43.8646 15.3675" fill="white"/>
<path d="M45.0039 16.5274L43.8309 15.6887L44.2529 15.0854" fill="white"/>
<path d="M43.3111 16.5274L44.4841 15.6887L44.0621 15.0854" fill="white"/>
<path d="M43.3111 16.5273L43.7463 15.1525L44.4504 15.3675" fill="white"/>
<path d="M44.1575 8.16211L43.7015 9.53011L44.3975 9.77011" fill="white"/>
<path d="M44.1575 8.16211L44.6135 9.53011L43.9175 9.77011" fill="white"/>
<path d="M45.527 9.15731L44.0851 9.14637L44.0719 9.88247" fill="white"/>
<path d="M45.527 9.15714L44.3669 10.0136L43.9235 9.42578" fill="white"/>
<path d="M42.7879 9.15714L43.9481 10.0136L44.3914 9.42578" fill="white"/>
<path d="M42.7879 9.15731L44.2299 9.14637L44.2431 9.88247" fill="white"/>
<path d="M45.0039 10.7671L44.5687 9.39229L43.8646 9.60722" fill="white"/>
<path d="M45.0039 10.7671L43.8309 9.92842L44.2529 9.32516" fill="white"/>
<path d="M43.3111 10.7671L44.4841 9.92842L44.0621 9.32516" fill="white"/>
<path d="M43.3111 10.7671L43.7463 9.39229L44.4504 9.60722" fill="white"/>
<path d="M44.1575 2.40234L43.7015 3.77034L44.3975 4.01034" fill="white"/>
<path d="M44.1575 2.40234L44.6135 3.77034L43.9175 4.01034" fill="white"/>
<path d="M45.527 3.39755L44.0851 3.3866L44.0719 4.1227" fill="white"/>
<path d="M45.527 3.39737L44.3669 4.25379L43.9235 3.66602" fill="white"/>
<path d="M42.7879 3.39737L43.9481 4.25379L44.3914 3.66602" fill="white"/>
<path d="M42.7879 3.39755L44.2299 3.3866L44.2431 4.1227" fill="white"/>
<path d="M45.0039 5.00729L44.5687 3.63252L43.8646 3.84746" fill="white"/>
<path d="M45.0039 5.00736L43.8309 4.16866L44.2529 3.56539" fill="white"/>
<path d="M43.3111 5.00736L44.4841 4.16866L44.0621 3.56539" fill="white"/>
<path d="M43.3111 5.00729L43.7462 3.63252L44.4504 3.84746" fill="white"/>
<path d="M21.1175 13.9224L20.6615 15.2904L21.3575 15.5304" fill="white"/>
<path d="M21.1175 13.9224L21.5735 15.2904L20.8775 15.5304" fill="white"/>
<path d="M22.487 14.9176L21.0451 14.9066L21.0319 15.6427" fill="white"/>
<path d="M22.487 14.9174L21.3269 15.7738L20.8836 15.186" fill="white"/>
<path d="M19.748 14.9174L20.9081 15.7738L21.3514 15.186" fill="white"/>
<path d="M19.7479 14.9176L21.1899 14.9066L21.2031 15.6427" fill="white"/>
<path d="M21.9639 16.5273L21.5287 15.1525L20.8246 15.3675" fill="white"/>
<path d="M21.9639 16.5274L20.7909 15.6887L21.2129 15.0854" fill="white"/>
<path d="M20.2711 16.5274L21.4441 15.6887L21.0221 15.0854" fill="white"/>
<path d="M20.2711 16.5273L20.7063 15.1525L21.4105 15.3675" fill="white"/>
<path d="M26.8775 13.9224L26.4215 15.2904L27.1175 15.5304" fill="white"/>
<path d="M26.8775 13.9224L27.3335 15.2904L26.6375 15.5304" fill="white"/>
<path d="M28.2471 14.9176L26.8051 14.9066L26.7919 15.6427" fill="white"/>
<path d="M28.247 14.9174L27.0869 15.7738L26.6436 15.186" fill="white"/>
<path d="M25.508 14.9174L26.6681 15.7738L27.1114 15.186" fill="white"/>
<path d="M25.508 14.9176L26.9499 14.9066L26.9631 15.6427" fill="white"/>
<path d="M27.7239 16.5273L27.2887 15.1525L26.5846 15.3675" fill="white"/>
<path d="M27.7239 16.5274L26.5509 15.6887L26.9729 15.0854" fill="white"/>
<path d="M26.0311 16.5274L27.2041 15.6887L26.7821 15.0854" fill="white"/>
<path d="M26.0311 16.5273L26.4663 15.1525L27.1705 15.3675" fill="white"/>
<path d="M26.8775 8.16211L26.4215 9.53011L27.1175 9.77011" fill="white"/>
<path d="M26.8775 8.16211L27.3335 9.53011L26.6375 9.77011" fill="white"/>
<path d="M28.2471 9.15731L26.8051 9.14637L26.7919 9.88247" fill="white"/>
<path d="M28.247 9.15714L27.0869 10.0136L26.6436 9.42578" fill="white"/>
<path d="M25.508 9.15714L26.6681 10.0136L27.1114 9.42578" fill="white"/>
<path d="M25.508 9.15731L26.9499 9.14637L26.9631 9.88247" fill="white"/>
<path d="M27.7239 10.7671L27.2887 9.39229L26.5846 9.60722" fill="white"/>
<path d="M27.724 10.7671L26.551 9.92842L26.973 9.32516" fill="white"/>
<path d="M26.0311 10.7671L27.2041 9.92842L26.7821 9.32516" fill="white"/>
<path d="M26.0311 10.7671L26.4663 9.39229L27.1705 9.60722" fill="white"/>
</g>
<defs>
<clipPath id="clip0_209_8">
<rect width="80" height="60" fill="white"/>
</clipPath>
</defs>
</svg>
