<svg width="23" height="22" viewBox="0 0 23 22" fill="none" xmlns="http://www.w3.org/2000/svg">
<path d="M19.9217 21.8784H2.73419C1.43976 21.8784 0.390442 20.8291 0.390442 19.5347V2.34717C0.390442 1.05273 1.43976 0.00341797 2.73419 0.00341797H19.9217C21.2161 0.00341797 22.2654 1.05273 22.2654 2.34717V19.5347C22.2654 20.8291 21.2161 21.8784 19.9217 21.8784ZM9.92726 17.0904L18.9116 8.10601C19.2167 7.80093 19.2167 7.30625 18.9116 7.00117L17.8068 5.89634C17.5017 5.59126 17.007 5.59121 16.7019 5.89634L9.37482 13.2234L5.95397 9.80254C5.64889 9.49746 5.15421 9.49746 4.84908 9.80254L3.74425 10.9074C3.43917 11.2125 3.43917 11.7071 3.74425 12.0122L8.82238 17.0903C9.1275 17.3955 9.62213 17.3955 9.92726 17.0904Z" fill="#5E5EEE"/>
</svg>
