<svg width="56" height="56" viewBox="0 0 56 56" fill="none" xmlns="http://www.w3.org/2000/svg">
<path d="M50.26 34.9998H39.6667C38.429 34.9998 37.242 35.4915 36.3669 36.3667C35.4917 37.2418 35 38.4288 35 39.6665V50.2598M16.3334 7.79317V11.6665C16.3334 13.523 17.0709 15.3035 18.3836 16.6163C19.6964 17.929 21.4768 18.6665 23.3334 18.6665C24.571 18.6665 25.758 19.1582 26.6332 20.0333C27.5084 20.9085 28 22.0955 28 23.3332C28 25.8998 30.1 27.9998 32.6667 27.9998C33.9044 27.9998 35.0913 27.5082 35.9665 26.633C36.8417 25.7578 37.3334 24.5708 37.3334 23.3332C37.3334 20.7665 39.4334 18.6665 42 18.6665H49.3967M25.6667 51.2165V41.9998C25.6667 40.7622 25.175 39.5752 24.2999 38.7C23.4247 37.8248 22.2377 37.3332 21 37.3332C19.7623 37.3332 18.5754 36.8415 17.7002 35.9663C16.825 35.0912 16.3334 33.9042 16.3334 32.6665V30.3332C16.3334 29.0955 15.8417 27.9085 14.9665 27.0333C14.0913 26.1582 12.9044 25.6665 11.6667 25.6665H4.78335M51.3334 27.9998C51.3334 40.8865 40.8867 51.3332 28 51.3332C15.1134 51.3332 4.66669 40.8865 4.66669 27.9998C4.66669 15.1132 15.1134 4.6665 28 4.6665C40.8867 4.6665 51.3334 15.1132 51.3334 27.9998Z" stroke="black" stroke-width="3.5" stroke-linecap="round" stroke-linejoin="round"/>
</svg>
