<svg width="56" height="56" viewBox="0 0 56 56" fill="none" xmlns="http://www.w3.org/2000/svg">
<path d="M7 25.6665H14C15.2377 25.6665 16.4247 26.1582 17.2998 27.0333C18.175 27.9085 18.6667 29.0955 18.6667 30.3332V37.3332C18.6667 38.5708 18.175 39.7578 17.2998 40.633C16.4247 41.5082 15.2377 41.9998 14 41.9998H11.6667C10.429 41.9998 9.242 41.5082 8.36683 40.633C7.49167 39.7578 7 38.5708 7 37.3332V25.6665ZM7 25.6665C7 22.9087 7.54318 20.178 8.59853 17.6302C9.65388 15.0823 11.2007 12.7673 13.1508 10.8173C15.1008 8.86723 17.4158 7.32038 19.9636 6.26503C22.5115 5.20968 25.2422 4.6665 28 4.6665C30.7578 4.6665 33.4885 5.20968 36.0364 6.26503C38.5842 7.32038 40.8992 8.86723 42.8492 10.8173C44.7993 12.7673 46.3461 15.0823 47.4015 17.6302C48.4568 20.178 49 22.9087 49 25.6665M49 25.6665V37.3332M49 25.6665H42C40.7623 25.6665 39.5753 26.1582 38.7002 27.0333C37.825 27.9085 37.3333 29.0955 37.3333 30.3332V37.3332C37.3333 38.5708 37.825 39.7578 38.7002 40.633C39.5753 41.5082 40.7623 41.9998 42 41.9998H44.3333C45.571 41.9998 46.758 41.5082 47.6332 40.633C48.5083 39.7578 49 38.5708 49 37.3332M49 37.3332V41.9998C49 44.4752 48.0167 46.8492 46.2663 48.5995C44.516 50.3498 42.142 51.3332 39.6667 51.3332H28" stroke="black" stroke-width="3.5" stroke-linecap="round" stroke-linejoin="round"/>
</svg>
