<svg width="56" height="56" viewBox="0 0 56 56" fill="none" xmlns="http://www.w3.org/2000/svg">
<path d="M30.3333 4.6665C35.9028 4.6665 41.2443 6.879 45.1825 10.8173C49.1208 14.7555 51.3333 20.097 51.3333 25.6665M30.3333 13.9998C33.4275 13.9998 36.3949 15.229 38.5829 17.4169C40.7708 19.6048 42 22.5723 42 25.6665M32.2746 38.6585C32.7565 38.8798 33.2994 38.9304 33.8139 38.8019C34.3284 38.6734 34.7837 38.3734 35.105 37.9515L35.9333 36.8665C36.368 36.2869 36.9316 35.8165 37.5796 35.4925C38.2276 35.1685 38.9421 34.9998 39.6666 34.9998H46.6666C47.9043 34.9998 49.0913 35.4915 49.9665 36.3667C50.8416 37.2418 51.3333 38.4288 51.3333 39.6665V46.6665C51.3333 47.9042 50.8416 49.0912 49.9665 49.9663C49.0913 50.8415 47.9043 51.3332 46.6666 51.3332C35.5275 51.3332 24.8447 46.9082 16.9681 39.0317C9.09161 31.1551 4.66663 20.4723 4.66663 9.33317C4.66663 8.09549 5.15829 6.90851 6.03346 6.03334C6.90863 5.15817 8.09562 4.6665 9.33329 4.6665H16.3333C17.571 4.6665 18.758 5.15817 19.6331 6.03334C20.5083 6.90851 21 8.09549 21 9.33317V16.3332C21 17.0576 20.8313 17.7722 20.5073 18.4202C20.1833 19.0682 19.7129 19.6318 19.1333 20.0665L18.0413 20.8855C17.6129 21.2126 17.311 21.6779 17.1868 22.2023C17.0626 22.7268 17.1238 23.278 17.36 23.7625C20.5489 30.2395 25.7936 35.4777 32.2746 38.6585Z" stroke="black" stroke-width="3.5" stroke-linecap="round" stroke-linejoin="round"/>
</svg>
